<svg width="16" height="16" viewBox="0 0 16 16" fill="none" xmlns="http://www.w3.org/2000/svg">
<path d="M8 2.66602C4.74733 2.66602 2 5.41335 2 8.66602C2 11.9187 4.74733 14.666 8 14.666C11.2527 14.666 14 11.9187 14 8.66602C14 5.41335 11.2527 2.66602 8 2.66602ZM8 13.3327C5.47067 13.3327 3.33333 11.1953 3.33333 8.66602C3.33333 6.13668 5.47067 3.99935 8 3.99935C10.5293 3.99935 12.6667 6.13668 12.6667 8.66602C12.6667 11.1953 10.5293 13.3327 8 13.3327Z" fill="#0C1B5A"/>
<path d="M8.66732 8.00065V5.33398H7.33398V8.00065V9.33398H8.66732H11.334V8.00065H8.66732Z" fill="#0C1B5A"/>
<path d="M11.5234 2.4707L12.4649 1.52655L14.4712 3.52715L13.5298 4.4713L11.5234 2.4707Z" fill="#0C1B5A"/>
<path d="M4.46484 2.4707L2.4713 4.46996L1.52715 3.5285L3.52069 1.52924L4.46484 2.4707Z" fill="#0C1B5A"/>
</svg>
