<svg width="24" height="25" viewBox="0 0 24 25" fill="none" xmlns="http://www.w3.org/2000/svg">
<path d="M16.5 6.50098H13.5C12.9477 6.50098 12.5 6.9487 12.5 7.50098V10.501H16.5C16.6137 10.4985 16.7216 10.5514 16.7892 10.6429C16.8568 10.7344 16.8758 10.853 16.84 10.961L16.1 13.161C16.0318 13.3629 15.8431 13.4994 15.63 13.501H12.5V21.001C12.5 21.2771 12.2761 21.501 12 21.501H9.5C9.22386 21.501 9 21.2771 9 21.001V13.501H7.5C7.22386 13.501 7 13.2771 7 13.001V11.001C7 10.7249 7.22386 10.501 7.5 10.501H9V7.50098C9 5.29184 10.7909 3.50098 13 3.50098H16.5C16.7761 3.50098 17 3.72484 17 4.00098V6.00098C17 6.27712 16.7761 6.50098 16.5 6.50098Z" fill="#B8BBC9"/>
</svg>
