<svg width="224" height="42" viewBox="0 0 224 42" fill="none" xmlns="http://www.w3.org/2000/svg">
<path d="M41.9157 21.0001C41.9157 32.6093 32.5916 41.8362 21.0024 41.8362C9.41332 41.8362 0.0136719 32.6849 0.0136719 21.0757C0.0136719 9.46647 9.30007 0.0126953 20.8892 0.0126953C32.4783 0.0126953 41.9157 9.39084 41.9157 21.0001Z" fill="white"/>
<path d="M36.177 35.4829L34.818 30.3779L34.7047 29.9241C32.7795 32.8737 29.9483 35.2182 26.4376 36.4661C26.0223 36.6174 25.5693 36.7686 25.1541 36.8821C20.7751 38.0165 16.3584 37.298 12.7345 35.1426C9.11052 33.0249 6.31705 29.5081 5.18456 25.1216C2.91959 16.3485 8.12903 7.42412 16.8869 5.1174C17.5287 4.92832 16.8869 5.1174 18.7744 4.6258L29.684 1.8653C29.684 1.8653 29.684 1.8653 29.7218 1.8653C25.4561 -0.0254547 20.5486 -0.592681 15.6789 0.693032C4.46732 3.60479 -2.25211 15.0628 0.692361 26.2938C3.63683 37.5249 15.0749 44.256 26.2866 41.3064C30.3258 40.2854 33.5345 38.3569 36.177 35.4829Z" fill="url(#paint0_linear_8120_165621)"/>
<path d="M40.0659 29.6592L39.9902 29.7348Z" fill="url(#paint1_linear_8120_165621)"/>
<path d="M26.4383 25.1216C26.4383 25.1216 26.4383 25.1216 20.5494 21.5292L36.5929 16.9158C37.1969 19.0334 36.6307 16.9158 37.1969 18.9578L40.0281 29.7729C40.0281 29.7729 44.0296 22.8905 40.6321 13.7393C39.2732 10.109 37.3479 7.57543 35.4605 5.83594L29.9113 7.27291L19.9076 9.88215C19.9076 9.88215 19.9076 9.88215 19.8699 9.88215L16.4347 10.7897C11.565 12.9452 8.80925 18.3149 10.0927 23.609C11.565 29.6973 17.6049 33.3653 23.6448 31.8149C27.7973 30.7561 30.8173 27.504 31.761 23.609" fill="#051C2C"/>
<path d="M66.5366 21.6829V18.9512H76.878V19.3414C76.878 20.3658 76.6829 21.3414 76.2926 22.2683C75.9024 23.1951 75.317 24.0731 74.5853 24.8536C72.9756 26.4634 71.0243 27.2926 68.5853 27.2926C67.3658 27.2926 66.2439 27.0975 65.2195 26.6585C64.1463 26.2195 63.2683 25.6341 62.4878 24.9512C61.7073 24.2682 61.1219 23.3414 60.6829 22.317C60.2439 21.2926 60 20.2195 60 19.0975C60 17.9756 60.1951 16.9024 60.6341 15.9268C61.0732 14.9024 61.6585 14.0732 62.3902 13.3415C63.1219 12.6098 64 12.0244 65.0244 11.6341C66.0488 11.1951 67.1219 11 68.2927 11C69.4146 11 70.5365 11.1951 71.5609 11.6341C72.6341 12.0732 73.5609 12.6585 74.3414 13.3902C75.1219 14.1219 75.7073 15 75.9999 15.9268H72.5365C72.0487 15.2439 71.4146 14.7073 70.6829 14.3658C69.9512 14.0244 69.1219 13.8293 68.1951 13.8293C67.4146 13.8293 66.7317 13.9756 66.0488 14.2195C65.3658 14.4634 64.8292 14.8536 64.3414 15.3414C63.9024 15.8293 63.5122 16.4146 63.2683 17.0975C63.0244 17.7805 62.878 18.4634 62.878 19.1463C62.878 20.6585 63.4146 21.9268 64.439 22.9512C65.4634 23.9756 66.7805 24.4634 68.3414 24.4634C69.3658 24.4634 70.2926 24.2195 71.1219 23.7317C71.9512 23.2439 72.5365 22.5609 72.9756 21.6829H66.5366Z" fill="white"/>
<path d="M80.2429 27.0487V15.1951H82.8282V16.3658C83.2185 15.8292 83.5599 15.439 83.9502 15.2439C84.2916 15.0487 84.7794 14.9512 85.4136 14.9512H85.6087V17.6829C83.9014 17.7317 83.0721 18.6585 83.0721 20.4633V27.0487H80.2429Z" fill="white"/>
<path d="M94.146 14.9023C95.268 14.9023 96.3411 15.195 97.268 15.7316C98.2436 16.2682 98.9753 17.0487 99.5606 18.0243C100.146 18.9999 100.39 20.0243 100.39 21.1462C100.39 22.2682 100.097 23.2926 99.5606 24.2194C99.0241 25.1462 98.2436 25.9267 97.268 26.4633C96.2924 26.9999 95.268 27.2925 94.0972 27.2925C92.9753 27.2925 91.9021 26.9999 90.9265 26.4633C89.9509 25.9267 89.1704 25.1462 88.6339 24.2194C88.0485 23.2926 87.8046 22.2194 87.8046 21.1462C87.8046 20.317 87.9509 19.4877 88.2924 18.7072C88.6339 17.9267 89.0729 17.2926 89.6582 16.7072C90.2436 16.1706 90.9265 15.7316 91.707 15.3901C92.4387 15.0975 93.268 14.9023 94.146 14.9023ZM93.9997 17.5365C93.0729 17.5365 92.2924 17.8779 91.6095 18.6096C90.9265 19.2926 90.6338 20.1706 90.6338 21.1462C90.6338 22.1218 90.9753 22.9999 91.6582 23.6828C92.3412 24.3657 93.1216 24.756 94.0485 24.756C94.9753 24.756 95.8046 24.4145 96.4875 23.6828C97.1704 22.9999 97.5119 22.1218 97.5119 21.1462C97.5119 20.1218 97.1704 19.2926 96.4875 18.5609C95.8046 17.8779 94.9753 17.5365 93.9997 17.5365Z" fill="white"/>
<path d="M106.244 27.0489L102 15.1953H105.074L107.171 22.4148L109.171 15.1953H111.415L113.366 22.4148L115.513 15.1953H118.537L114.244 27.0489H112.488L110.293 19.3416L108 27.0001H106.244V27.0489Z" fill="white"/>
<path d="M121.854 27.049V17.7807H120.489V15.1953H121.854V11.2441H124.684V15.1953H126.391V17.7807H124.684V27.049H121.854Z" fill="white"/>
<path d="M129.318 27.049V11.2441H132.147V16.0246C132.976 15.2929 133.952 14.9027 135.171 14.9027C136.049 14.9027 136.83 15.049 137.513 15.3905C138.196 15.7319 138.732 16.2197 139.122 16.8539C139.366 17.2929 139.561 17.7807 139.659 18.3173C139.757 18.8539 139.805 19.5368 139.805 20.3661V27.049H136.976V21.0002C136.976 19.7319 136.781 18.8539 136.439 18.3173C136.098 17.7807 135.513 17.5368 134.683 17.5368C133.659 17.5368 132.976 17.927 132.586 18.7075C132.342 19.1953 132.196 19.927 132.196 21.049V27.049H129.318Z" fill="white"/>
<path d="M148.537 11.2441H151.464V22.5124C151.464 24.0246 151.074 25.1953 150.342 26.0246C149.562 26.9026 148.537 27.2929 147.22 27.2929C146.537 27.2929 145.903 27.1465 145.318 26.9026C144.732 26.6587 144.196 26.2685 143.806 25.7807C143.513 25.4392 143.269 25.0978 143.171 24.7075C143.025 24.366 142.927 23.8782 142.879 23.2441H145.806C146.001 24.0246 146.44 24.4148 147.22 24.4148C148.147 24.4148 148.635 23.7319 148.635 22.3661V11.2441H148.537Z" fill="white"/>
<path d="M161.464 14.9023C162.586 14.9023 163.659 15.195 164.586 15.7316C165.561 16.2682 166.293 17.0487 166.878 18.0243C167.464 18.9999 167.708 20.0243 167.708 21.1462C167.708 22.2682 167.415 23.2926 166.878 24.2194C166.342 25.1462 165.561 25.9267 164.586 26.4633C163.61 26.9999 162.586 27.2925 161.415 27.2925C160.293 27.2925 159.22 26.9999 158.244 26.4633C157.269 25.9267 156.488 25.1462 155.952 24.2194C155.366 23.2926 155.122 22.2194 155.122 21.1462C155.122 20.317 155.269 19.4877 155.61 18.7072C155.952 17.9267 156.391 17.2926 156.976 16.7072C157.561 16.1706 158.244 15.7316 159.025 15.3901C159.756 15.0975 160.586 14.9023 161.464 14.9023ZM161.317 17.5365C160.391 17.5365 159.61 17.8779 158.927 18.6096C158.244 19.2926 157.952 20.1706 157.952 21.1462C157.952 22.1218 158.293 22.9999 158.976 23.6828C159.659 24.3657 160.439 24.756 161.366 24.756C162.293 24.756 163.122 24.4145 163.805 23.6828C164.488 22.9999 164.83 22.1218 164.83 21.1462C164.83 20.1218 164.488 19.2926 163.805 18.5609C163.122 17.8779 162.293 17.5365 161.317 17.5365Z" fill="white"/>
<path d="M179.415 23.1462H182.635C182.147 24.4633 181.366 25.4877 180.342 26.2194C179.318 26.9511 178.098 27.2925 176.732 27.2925C175.854 27.2925 175.025 27.1462 174.244 26.8047C173.464 26.4633 172.781 26.0243 172.244 25.4877C171.659 24.9511 171.22 24.2682 170.879 23.5365C170.537 22.756 170.391 21.9755 170.391 21.0974C170.391 19.9755 170.683 18.9023 171.22 17.9755C171.757 17.0487 172.537 16.2682 173.464 15.7316C174.391 15.195 175.464 14.9023 176.635 14.9023C177.464 14.9023 178.293 15.0487 179.074 15.3414C179.854 15.634 180.537 16.0731 181.074 16.6584C181.464 17.0487 181.757 17.3901 181.952 17.7316C182.147 18.0731 182.391 18.5609 182.586 19.1462H179.366C178.83 18.0731 177.903 17.5365 176.586 17.5365C175.61 17.5365 174.781 17.8779 174.147 18.5121C173.513 19.1462 173.22 20.0243 173.22 21.0974C173.22 22.1218 173.562 22.9999 174.196 23.6828C174.83 24.3657 175.659 24.7072 176.635 24.7072C177.22 24.7072 177.708 24.5608 178.147 24.3169C178.635 24.073 179.074 23.6828 179.415 23.1462Z" fill="white"/>
<path d="M185.854 27.049V11.2441H188.683V20.7563L192.439 15.1466H195.854L191.61 20.9514L196.537 27.0002H192.683L188.635 21.488V27.0002H185.854V27.049Z" fill="white"/>
<path d="M210.097 22.3657H200.926C201.121 23.0974 201.463 23.634 202.048 24.073C202.633 24.5121 203.365 24.7072 204.194 24.7072C204.78 24.7072 205.268 24.6096 205.658 24.4633C206.048 24.2682 206.438 23.9755 206.78 23.5365H209.902C209.755 24.073 209.414 24.6096 208.975 25.195C207.755 26.6096 206.194 27.3413 204.292 27.3413C203.414 27.3413 202.536 27.195 201.755 26.8535C200.975 26.5121 200.292 26.1218 199.707 25.5365C199.121 24.9511 198.682 24.3169 198.341 23.5852C197.999 22.8535 197.853 22.0243 197.853 21.1462C197.853 20.0243 198.146 18.9511 198.682 17.9755C199.219 16.9999 199.999 16.2682 200.926 15.7316C201.902 15.195 202.926 14.9023 204.097 14.9023C205.268 14.9023 206.292 15.195 207.219 15.7316C208.146 16.2682 208.877 17.0487 209.414 18.0243C209.95 18.9999 210.194 20.0731 210.194 21.2926C210.194 21.6828 210.146 22.0243 210.097 22.3657ZM200.829 19.8779H207.414C207.219 19.0975 206.877 18.5609 206.292 18.1218C205.707 17.7316 205.024 17.5365 204.146 17.5365C203.316 17.5365 202.585 17.7316 202.048 18.1218C201.463 18.5121 201.072 19.0975 200.829 19.8779Z" fill="white"/>
<path d="M213.902 31.0001L216.145 25.927L211.804 15.1953H215.072L217.706 22.9026L220.584 15.1953H223.853L217.024 31.0001H213.902Z" fill="white"/>
<defs>
<linearGradient id="paint0_linear_8120_165621" x1="5.5643" y1="42.5787" x2="27.8991" y2="11.1532" gradientUnits="userSpaceOnUse">
<stop stop-color="#1E40CA"/>
<stop offset="1" stop-color="#00A2ED"/>
</linearGradient>
<linearGradient id="paint1_linear_8120_165621" x1="22.3951" y1="54.5617" x2="44.7166" y2="23.0993" gradientUnits="userSpaceOnUse">
<stop stop-color="#1E40CA"/>
<stop offset="1" stop-color="#00A2ED"/>
</linearGradient>
</defs>
</svg>
