<svg width="113" height="113" viewBox="0 0 113 113" fill="none" xmlns="http://www.w3.org/2000/svg">
<path d="M112.275 56.2505C112.275 87.3466 87.2993 112.062 56.257 112.062C25.2147 112.062 0.0371094 87.5492 0.0371094 56.4531C0.0371094 25.3569 24.9114 0.0343018 55.9537 0.0343018C86.996 0.0343018 112.275 25.1543 112.275 56.2505Z" fill="white"/>
<path d="M96.9026 95.0445L93.2624 81.3703L92.9591 80.1548C87.8022 88.0555 80.2186 94.3355 70.8149 97.678C69.7026 98.0832 68.4893 98.4884 67.377 98.7922C55.6477 101.831 43.8172 99.9064 34.1102 94.1329C24.4032 88.4606 16.9207 79.0406 13.8872 67.2909C7.82032 43.7915 21.7742 19.887 45.2328 13.7083C46.9518 13.2018 45.2328 13.7083 50.2886 12.3915L79.5108 4.99731C79.5108 4.99731 79.5108 4.99731 79.6119 4.99731C68.1859 -0.0672057 55.041 -1.58656 41.9972 1.85731C11.966 9.65667 -6.03243 40.3477 1.85454 70.4309C9.7415 100.514 40.3793 118.544 70.4105 110.643C81.2298 107.908 89.8245 102.743 96.9026 95.0445Z" fill="url(#paint0_linear_7597_7472)"/>
<path d="M107.32 79.4453L107.117 79.6479L107.32 79.4453Z" fill="url(#paint1_linear_7597_7472)"/>
<path d="M70.8174 67.2915C70.8174 67.2915 70.8174 67.2915 55.0435 57.6689L98.0173 45.3115C99.6351 50.9838 98.1184 45.3115 99.6351 50.7812L107.219 79.7503C107.219 79.7503 117.937 61.3154 108.837 36.8031C105.196 27.0792 100.04 20.2928 94.9838 15.6334L80.12 19.4825L53.3245 26.4715C53.3245 26.4715 53.3245 26.4715 53.2234 26.4715L44.0219 28.9025C30.9781 34.676 23.5967 49.0593 27.0346 63.2399C30.9781 79.5477 47.1565 89.3728 63.3349 85.2199C74.4575 82.3838 82.5467 73.6728 85.0746 63.2399" fill="#051C2C"/>
<defs>
<linearGradient id="paint0_linear_7597_7472" x1="14.9044" y1="114.051" x2="74.7298" y2="29.8755" gradientUnits="userSpaceOnUse">
<stop stop-color="#1E40CA"/>
<stop offset="1" stop-color="#00A2ED"/>
</linearGradient>
<linearGradient id="paint1_linear_7597_7472" x1="59.9875" y1="146.149" x2="119.777" y2="61.8743" gradientUnits="userSpaceOnUse">
<stop stop-color="#1E40CA"/>
<stop offset="1" stop-color="#00A2ED"/>
</linearGradient>
</defs>
</svg>
