<svg
    xmlns="http://www.w3.org/2000/svg"
    width="146"
    height="18"
    viewBox="0 0 146 18"
    fill="none"
>
    <path
        d="M5.81018 9.60723V7.17905H15.0026V7.52594C15.0026 8.4365 14.8291 9.30371 14.4822 10.1276C14.1354 10.9514 13.615 11.7319 12.9646 12.4256C11.5337 13.8565 9.79932 14.5937 7.63131 14.5937C6.5473 14.5937 5.55002 14.4202 4.63945 14.03C3.68553 13.6397 2.90504 13.1194 2.21128 12.5124C1.51751 11.9053 0.997188 11.0815 0.606946 10.1709C0.216703 9.26035 -9.53674e-05 8.30642 -9.53674e-05 7.30913C-9.53674e-05 6.31185 0.173347 5.35792 0.56359 4.49072C0.953832 3.58015 1.47415 2.84303 2.12456 2.19262C2.77496 1.54222 3.55545 1.02189 4.46601 0.675012C5.37658 0.28477 6.33051 0.111328 7.37115 0.111328C8.36844 0.111328 9.36572 0.28477 10.2763 0.675012C11.2302 1.06525 12.0541 1.58558 12.7478 2.23598C13.4416 2.88639 13.9619 3.66687 14.2221 4.49072H11.1435C10.7099 3.88367 10.1462 3.40671 9.4958 3.10319C8.8454 2.79967 8.10828 2.62622 7.28443 2.62622C6.59067 2.62622 5.98362 2.75631 5.37658 2.97311C4.76953 3.18991 4.29257 3.53679 3.85897 3.97039C3.46872 4.404 3.12184 4.92432 2.90504 5.53136C2.68824 6.13841 2.55816 6.74545 2.55816 7.35249C2.55816 8.69666 3.03512 9.82403 3.94569 10.7346C4.85625 11.6452 6.02698 12.0788 7.41451 12.0788C8.32507 12.0788 9.14892 11.862 9.88605 11.4284C10.6232 10.9948 11.1435 10.3877 11.5337 9.60723H5.81018Z"
        fill="#1A1D2E"
    />
    <path
        d="M17.9933 14.3774V3.84082H20.2914V4.88147C20.6383 4.40451 20.9418 4.05763 21.2887 3.88419C21.5922 3.71074 22.0258 3.62402 22.5895 3.62402H22.7629V6.0522C21.2453 6.09556 20.5082 6.9194 20.5082 8.52374V14.3774H17.9933Z"
        fill="#1A1D2E"
    />
    <path
        d="M30.3519 3.58008C31.3492 3.58008 32.3031 3.84024 33.127 4.3172C33.9942 4.79417 34.6446 5.48793 35.1649 6.35514C35.6852 7.22234 35.902 8.13291 35.902 9.13019C35.902 10.1275 35.6419 11.038 35.1649 11.8619C34.6879 12.6857 33.9942 13.3795 33.127 13.8565C32.2598 14.3334 31.3492 14.5936 30.3086 14.5936C29.3113 14.5936 28.3573 14.3334 27.4901 13.8565C26.6229 13.3795 25.9292 12.6857 25.4522 11.8619C24.9319 11.038 24.7151 10.0841 24.7151 9.13019C24.7151 8.39307 24.8452 7.65594 25.1487 6.96218C25.4522 6.26842 25.8425 5.70473 26.3628 5.18441C26.8831 4.70745 27.4901 4.3172 28.1839 4.01368C28.8343 3.75352 29.5714 3.58008 30.3519 3.58008ZM30.2218 5.92153C29.398 5.92153 28.7042 6.22506 28.0972 6.87546C27.4901 7.4825 27.23 8.26299 27.23 9.13019C27.23 9.9974 27.5335 10.7779 28.1405 11.3849C28.7476 11.992 29.4414 12.3389 30.2652 12.3389C31.0891 12.3389 31.8262 12.0353 32.4332 11.3849C33.0403 10.7779 33.3438 9.9974 33.3438 9.13019C33.3438 8.21963 33.0403 7.4825 32.4332 6.8321C31.8262 6.22506 31.089 5.92153 30.2218 5.92153Z"
        fill="#1A1D2E"
    />
    <path
        d="M41.1059 14.3774L37.3336 3.84082H40.0653L41.9298 10.2581L43.7075 3.84082H45.7021L47.4365 10.2581L49.3444 3.84082H52.0327L48.217 14.3774H46.656L44.7048 7.52644L42.6669 14.334H41.1059V14.3774Z"
        fill="#1A1D2E"
    />
    <path
        d="M54.9817 14.3769V6.1384H53.7676V3.84031H54.9817V0.328125H57.4966V3.84031H59.0142V6.1384H57.4966V14.3769H54.9817Z"
        fill="#1A1D2E"
    />
    <path
        d="M61.6153 14.3769V0.328125H64.1302V4.57743C64.8673 3.92703 65.7345 3.58015 66.8185 3.58015C67.599 3.58015 68.2928 3.71023 68.8998 4.01375C69.5068 4.31727 69.9838 4.75087 70.3307 5.31456C70.5475 5.7048 70.7209 6.1384 70.8076 6.61537C70.8944 7.09233 70.9377 7.69937 70.9377 8.4365V14.3769H68.4228V9.00018C68.4228 7.87281 68.2494 7.09233 67.9459 6.61537C67.6423 6.1384 67.122 5.9216 66.3849 5.9216C65.4743 5.9216 64.8673 6.26848 64.5204 6.96225C64.3036 7.39585 64.1735 8.04625 64.1735 9.04354V14.3769H61.6153Z"
        fill="#1A1D2E"
    />
    <path
        d="M78.6997 0.328125H81.3014V10.3443C81.3014 11.6885 80.9545 12.7292 80.3041 13.4663C79.6103 14.2468 78.6997 14.5937 77.529 14.5937C76.922 14.5937 76.3583 14.4636 75.838 14.2468C75.3176 14.03 74.8407 13.6831 74.4938 13.2495C74.2336 12.946 74.0168 12.6424 73.9301 12.2956C73.8 11.992 73.7133 11.5584 73.67 10.9948H76.2716C76.445 11.6885 76.8353 12.0354 77.529 12.0354C78.3529 12.0354 78.7865 11.4284 78.7865 10.2143V0.328125H78.6997Z"
        fill="#1A1D2E"
    />
    <path
        d="M90.19 3.58008C91.1873 3.58008 92.1413 3.84024 92.9651 4.3172C93.8323 4.79417 94.4827 5.48793 95.003 6.35514C95.5233 7.22234 95.7402 8.13291 95.7402 9.13019C95.7402 10.1275 95.48 11.038 95.003 11.8619C94.5261 12.6857 93.8323 13.3795 92.9651 13.8565C92.0979 14.3334 91.1873 14.5936 90.1467 14.5936C89.1494 14.5936 88.1955 14.3334 87.3283 13.8565C86.4611 13.3795 85.7673 12.6857 85.2903 11.8619C84.77 11.038 84.5532 10.0841 84.5532 9.13019C84.5532 8.39307 84.6833 7.65594 84.9868 6.96218C85.2903 6.26842 85.6806 5.70473 86.2009 5.18441C86.7212 4.70745 87.3282 4.3172 88.022 4.01368C88.6724 3.75352 89.4095 3.58008 90.19 3.58008ZM90.06 5.92153C89.2361 5.92153 88.5423 6.22506 87.9353 6.87546C87.3283 7.4825 87.0681 8.26299 87.0681 9.13019C87.0681 9.9974 87.3716 10.7779 87.9787 11.3849C88.5857 11.992 89.2795 12.3389 90.1033 12.3389C90.9272 12.3389 91.6643 12.0353 92.2713 11.3849C92.8784 10.7779 93.1819 9.9974 93.1819 9.13019C93.1819 8.21963 92.8784 7.4825 92.2713 6.8321C91.6643 6.22506 90.9272 5.92153 90.06 5.92153Z"
        fill="#1A1D2E"
    />
    <path
        d="M106.146 10.908H109.008C108.575 12.0787 107.881 12.9893 106.97 13.6397C106.06 14.2901 104.976 14.5936 103.762 14.5936C102.981 14.5936 102.244 14.4635 101.55 14.16C100.856 13.8565 100.249 13.4662 99.7725 12.9893C99.2522 12.5123 98.8619 11.9053 98.5584 11.2548C98.2549 10.5611 98.1248 9.86732 98.1248 9.08683C98.1248 8.08955 98.385 7.13562 98.8619 6.31178C99.3389 5.48793 100.033 4.79417 100.856 4.3172C101.68 3.84024 102.634 3.58008 103.675 3.58008C104.412 3.58008 105.149 3.71016 105.843 3.97032C106.537 4.23048 107.144 4.62072 107.621 5.14105C107.968 5.48793 108.228 5.79145 108.401 6.09497C108.575 6.3985 108.791 6.8321 108.965 7.35242H106.103C105.626 6.3985 104.802 5.92153 103.632 5.92153C102.764 5.92153 102.027 6.22505 101.464 6.78874C100.9 7.35242 100.64 8.13291 100.64 9.08683C100.64 9.9974 100.943 10.7779 101.507 11.3849C102.071 11.992 102.808 12.2955 103.675 12.2955C104.195 12.2955 104.629 12.1654 105.019 11.9486C105.453 11.7318 105.843 11.3849 106.146 10.908Z"
        fill="#1A1D2E"
    />
    <path
        d="M111.87 14.3769V0.328125H114.385V8.78338L117.724 3.79695H120.759L116.987 8.95682L121.366 14.3335H117.94L114.342 9.43378V14.3335H111.87V14.3769Z"
        fill="#1A1D2E"
    />
    <path
        d="M133.419 10.2142H125.268C125.441 10.8646 125.744 11.3416 126.265 11.7318C126.785 12.1221 127.436 12.2955 128.173 12.2955C128.693 12.2955 129.127 12.2088 129.473 12.0787C129.82 11.9053 130.167 11.6451 130.471 11.2548H133.246C133.116 11.7318 132.812 12.2088 132.422 12.7291C131.338 13.9865 129.95 14.637 128.259 14.637C127.479 14.637 126.698 14.5069 126.005 14.2033C125.311 13.8998 124.704 13.5529 124.184 13.0326C123.663 12.5123 123.273 11.9486 122.969 11.2982C122.666 10.6478 122.536 9.91068 122.536 9.13019C122.536 8.13291 122.796 7.17898 123.273 6.31178C123.75 5.44457 124.444 4.79417 125.268 4.3172C126.135 3.84024 127.045 3.58008 128.086 3.58008C129.127 3.58008 130.037 3.84024 130.861 4.3172C131.685 4.79417 132.335 5.48793 132.812 6.35514C133.289 7.22234 133.506 8.17627 133.506 9.26027C133.506 9.60716 133.463 9.91068 133.419 10.2142ZM125.181 8.00283H131.034C130.861 7.30906 130.557 6.8321 130.037 6.44186C129.517 6.09497 128.91 5.92153 128.129 5.92153C127.392 5.92153 126.742 6.09497 126.265 6.44186C125.744 6.78874 125.398 7.30906 125.181 8.00283Z"
        fill="#1A1D2E"
    />
    <path
        d="M136.801 17.8896L138.796 13.3801L134.937 3.84082H137.842L140.183 10.6917L142.742 3.84082H145.647L139.576 17.8896H136.801Z"
        fill="#1A1D2E"
    />
</svg>
