<svg width="24" height="25" viewBox="0 0 24 25" fill="none" xmlns="http://www.w3.org/2000/svg">
<path fill-rule="evenodd" clip-rule="evenodd" d="M16 3.50098H8C5.23858 3.50098 3 5.73956 3 8.50098V16.501C3 19.2624 5.23858 21.501 8 21.501H16C18.7614 21.501 21 19.2624 21 16.501V8.50098C21 5.73956 18.7614 3.50098 16 3.50098ZM19.25 16.501C19.2445 18.2936 17.7926 19.7455 16 19.751H8C6.20735 19.7455 4.75549 18.2936 4.75 16.501V8.50098C4.75549 6.70833 6.20735 5.25647 8 5.25098H16C17.7926 5.25647 19.2445 6.70833 19.25 8.50098V16.501ZM16.75 8.75098C17.3023 8.75098 17.75 8.30326 17.75 7.75098C17.75 7.1987 17.3023 6.75098 16.75 6.75098C16.1977 6.75098 15.75 7.1987 15.75 7.75098C15.75 8.30326 16.1977 8.75098 16.75 8.75098ZM12 8.00098C9.51472 8.00098 7.5 10.0157 7.5 12.501C7.5 14.9863 9.51472 17.001 12 17.001C14.4853 17.001 16.5 14.9863 16.5 12.501C16.5027 11.3067 16.0294 10.1605 15.1849 9.31606C14.3404 8.47157 13.1943 7.99832 12 8.00098ZM9.25 12.501C9.25 14.0198 10.4812 15.251 12 15.251C13.5188 15.251 14.75 14.0198 14.75 12.501C14.75 10.9822 13.5188 9.75098 12 9.75098C10.4812 9.75098 9.25 10.9822 9.25 12.501Z" fill="#B8BBC9"/>
</svg>
