<svg width="24" height="25" viewBox="0 0 24 25" fill="none" xmlns="http://www.w3.org/2000/svg">
<path fill-rule="evenodd" clip-rule="evenodd" d="M5 3.50098H19C20.1046 3.50098 21 4.39641 21 5.50098V19.501C21 20.6056 20.1046 21.501 19 21.501H5C3.89543 21.501 3 20.6056 3 19.501V5.50098C3 4.39641 3.89543 3.50098 5 3.50098ZM8 18.501C8.27614 18.501 8.5 18.2771 8.5 18.001V11.001C8.5 10.7249 8.27614 10.501 8 10.501H6.5C6.22386 10.501 6 10.7249 6 11.001V18.001C6 18.2771 6.22386 18.501 6.5 18.501H8ZM7.25 9.50098C6.42157 9.50098 5.75 8.82941 5.75 8.00098C5.75 7.17255 6.42157 6.50098 7.25 6.50098C8.07843 6.50098 8.75 7.17255 8.75 8.00098C8.75 8.82941 8.07843 9.50098 7.25 9.50098ZM17.5 18.501C17.7761 18.501 18 18.2771 18 18.001V13.401C18.0325 11.8118 16.8576 10.4555 15.28 10.261C14.177 10.1602 13.1083 10.6754 12.5 11.601V11.001C12.5 10.7249 12.2761 10.501 12 10.501H10.5C10.2239 10.501 10 10.7249 10 11.001V18.001C10 18.2771 10.2239 18.501 10.5 18.501H12C12.2761 18.501 12.5 18.2771 12.5 18.001V14.251C12.5 13.4226 13.1716 12.751 14 12.751C14.8284 12.751 15.5 13.4226 15.5 14.251V18.001C15.5 18.2771 15.7239 18.501 16 18.501H17.5Z" fill="#B8BBC9"/>
</svg>
