<svg width="34" height="35" viewBox="0 0 34 35" fill="none" xmlns="http://www.w3.org/2000/svg">
<path fill-rule="evenodd" clip-rule="evenodd" d="M9 10.501C8.44772 10.501 8 10.9487 8 11.501V23.501C8 24.0533 8.44772 24.501 9 24.501H25C25.5523 24.501 26 24.0533 26 23.501V11.501C26 10.9487 25.5523 10.501 25 10.501H9ZM6 11.501C6 9.84412 7.34315 8.50098 9 8.50098H25C26.6569 8.50098 28 9.84412 28 11.501V23.501C28 25.1578 26.6569 26.501 25 26.501H9C7.34315 26.501 6 25.1578 6 23.501V11.501Z" fill="#B8BBC9"/>
<path fill-rule="evenodd" clip-rule="evenodd" d="M6.15612 11.9648C6.45232 11.4986 7.07032 11.3609 7.53645 11.6571L16.5033 17.3551C16.6524 17.4479 16.8245 17.4971 17.0001 17.4971C17.1758 17.4971 17.3479 17.4479 17.497 17.3551C17.4977 17.3546 17.4985 17.3542 17.4992 17.3537L26.4638 11.6571C26.9299 11.3609 27.5479 11.4986 27.8441 11.9648C28.1403 12.4309 28.0026 13.0489 27.5365 13.3451L18.5611 19.0485C18.0932 19.3417 17.5522 19.4971 17.0001 19.4971C16.448 19.4971 15.9071 19.3417 15.4392 19.0485L15.4338 19.0451L6.4638 13.3451C5.99767 13.0489 5.85991 12.4309 6.15612 11.9648Z" fill="#B8BBC9"/>
</svg>
